<?xml version="1.0" encoding="utf-8"?>
<!-- Generator: Adobe Illustrator 24.3.0, SVG Export Plug-In . SVG Version: 6.00 Build 0)  -->
<svg version="1.1" id="Calque_1" xmlns="http://www.w3.org/2000/svg" xmlns:xlink="http://www.w3.org/1999/xlink" x="0px" y="0px"
	 viewBox="0 0 463.97 377.93" style="enable-background:new 0 0 463.97 377.93;" xml:space="preserve">
<style type="text/css">
	.st0{fill:#706F6F;}
</style>
<g>
	<path class="st0" d="M99.92,45.47v16.97h-9.83V52.6L99.92,45.47z"/>
	<path class="st0" d="M108.6,114.11V45.47h14.56c5.65,0,9.94,1.54,12.87,4.63c2.92,3.09,4.39,7.46,4.39,13.11v32.1
		c0,6.43-1.56,11.17-4.68,14.22c-3.12,3.05-7.6,4.58-13.45,4.58H108.6z M118.43,54.72v50.13h4.53c2.76,0,4.72-0.69,5.88-2.07
		c1.16-1.38,1.73-3.55,1.73-6.51V63.21c0-2.7-0.55-4.79-1.64-6.27c-1.09-1.48-3.08-2.22-5.98-2.22H118.43z"/>
	<path class="st0" d="M144.07,114.11l15.33-68.64h8.19l15.33,68.64h-9.83l-2.89-14.75h-13.4l-2.89,14.75H144.07z M168.36,90.1
		l-4.82-24.87h-0.19l-4.82,24.87H168.36z"/>
	<path class="st0" d="M187.36,114.11V45.47h9.45l14.85,41.36h0.19V45.47h9.83v68.64h-9.25l-15.04-41.26h-0.19v41.26H187.36z"/>
	<path class="st0" d="M262.35,65.23h-9.83v-2.22c0-2.25-0.53-4.19-1.59-5.83s-2.84-2.46-5.35-2.46c-1.35,0-2.44,0.26-3.28,0.77
		c-0.84,0.51-1.51,1.16-2.03,1.93c-0.51,0.84-0.87,1.78-1.06,2.84c-0.19,1.06-0.29,2.17-0.29,3.33c0,1.35,0.05,2.47,0.14,3.37
		c0.1,0.9,0.34,1.7,0.72,2.41c0.39,0.71,0.95,1.32,1.69,1.83c0.74,0.52,1.75,1.03,3.04,1.54l7.52,2.99c2.18,0.84,3.95,1.82,5.3,2.94
		c1.35,1.12,2.41,2.43,3.18,3.9c0.71,1.54,1.19,3.29,1.45,5.25c0.26,1.96,0.39,4.19,0.39,6.7c0,2.89-0.29,5.58-0.87,8.05
		c-0.58,2.47-1.51,4.58-2.8,6.31c-1.35,1.8-3.12,3.21-5.3,4.24c-2.19,1.03-4.85,1.54-8,1.54c-2.38,0-4.6-0.42-6.65-1.25
		c-2.06-0.83-3.82-1.99-5.3-3.47c-1.48-1.48-2.65-3.2-3.52-5.16c-0.87-1.96-1.3-4.1-1.3-6.41v-3.66h9.83v3.09
		c0,1.8,0.53,3.42,1.59,4.87c1.06,1.45,2.84,2.17,5.35,2.17c1.67,0,2.97-0.24,3.9-0.72c0.93-0.48,1.65-1.17,2.17-2.07
		c0.51-0.9,0.82-1.98,0.92-3.23c0.1-1.25,0.14-2.65,0.14-4.19c0-1.8-0.06-3.28-0.19-4.43c-0.13-1.16-0.39-2.09-0.77-2.8
		c-0.45-0.71-1.05-1.28-1.78-1.73c-0.74-0.45-1.72-0.93-2.94-1.45l-7.04-2.89c-4.24-1.73-7.09-4.03-8.53-6.89
		c-1.45-2.86-2.17-6.44-2.17-10.75c0-2.57,0.35-5.01,1.06-7.33c0.71-2.31,1.77-4.3,3.18-5.98c1.35-1.67,3.07-3,5.16-4
		c2.09-1,4.58-1.49,7.47-1.49c2.44,0,4.68,0.45,6.7,1.35c2.02,0.9,3.77,2.09,5.25,3.57c2.95,3.08,4.43,6.62,4.43,10.6V65.23z"/>
	<path class="st0" d="M287.03,61.67c0-2.76,0.48-5.21,1.45-7.33c0.96-2.12,2.25-3.89,3.86-5.3c1.54-1.35,3.29-2.38,5.25-3.08
		c1.96-0.71,3.94-1.06,5.93-1.06c1.99,0,3.97,0.35,5.93,1.06c1.96,0.71,3.74,1.73,5.35,3.08c1.54,1.42,2.8,3.18,3.76,5.3
		c0.96,2.12,1.45,4.56,1.45,7.33v36.25c0,2.7-0.48,5.05-1.45,7.04l6.07,4.92l-5.01,5.98l-5.78-4.72c-2.96,2.38-6.4,3.57-10.32,3.57
		c-1.99,0-3.97-0.35-5.93-1.06c-1.96-0.71-3.71-1.77-5.25-3.18c-1.61-1.35-2.89-3.05-3.86-5.11c-0.96-2.06-1.45-4.53-1.45-7.42
		V61.67z M296.86,97.91c0,2.38,0.66,4.13,1.98,5.25c1.32,1.12,2.88,1.69,4.68,1.69c0.9,0,1.61-0.13,2.12-0.39l-4.43-3.57l5.01-5.98
		l3.95,3.18v-0.19V61.67c0-2.38-0.66-4.13-1.98-5.25c-1.32-1.12-2.88-1.69-4.68-1.69c-1.8,0-3.36,0.56-4.68,1.69
		c-1.32,1.13-1.98,2.88-1.98,5.25V97.91z"/>
	<path class="st0" d="M360.49,45.47v53.21c0,2.25-0.4,4.32-1.2,6.22c-0.81,1.9-1.95,3.58-3.42,5.06c-1.48,1.48-3.18,2.64-5.11,3.47
		c-1.93,0.83-3.99,1.25-6.17,1.25c-2.19,0-4.23-0.42-6.12-1.25c-1.9-0.83-3.58-1.99-5.06-3.47c-1.48-1.48-2.64-3.17-3.47-5.06
		c-0.84-1.89-1.25-3.97-1.25-6.22V45.47h9.83v52.25c0,2.44,0.58,4.24,1.73,5.4c1.16,1.16,2.6,1.73,4.34,1.73
		c1.73,0,3.18-0.58,4.34-1.73c1.16-1.16,1.73-2.96,1.73-5.4V45.47H360.49z"/>
	<path class="st0" d="M369.74,114.11V45.47h29.31v9.25h-19.47v20.15h16.97v9.25h-16.97v20.15h19.47v9.83H369.74z"/>
	<path class="st0" d="M405.41,114.11V45.47h9.83v58.81h19.47v9.83H405.41z"/>
	<path class="st0" d="M63.96,210.22v4.24c0,2.12-0.4,4.13-1.2,6.03c-0.81,1.9-1.91,3.58-3.33,5.06c-1.41,1.48-3.07,2.65-4.96,3.52
		c-1.9,0.87-3.94,1.3-6.12,1.3c-1.86,0-3.76-0.26-5.69-0.77c-1.93-0.51-3.66-1.41-5.21-2.7c-1.54-1.28-2.81-2.94-3.81-4.96
		c-1-2.02-1.49-4.61-1.49-7.76v-37.79c0-2.25,0.39-4.34,1.16-6.27c0.77-1.93,1.86-3.6,3.28-5.01c1.41-1.41,3.1-2.52,5.06-3.33
		c1.96-0.8,4.13-1.21,6.51-1.21c4.63,0,8.39,1.51,11.28,4.53c1.41,1.48,2.52,3.23,3.33,5.25c0.8,2.02,1.2,4.23,1.2,6.6v3.86h-9.83
		v-3.28c0-1.93-0.55-3.6-1.64-5.01c-1.09-1.41-2.57-2.12-4.43-2.12c-2.44,0-4.07,0.76-4.87,2.27c-0.8,1.51-1.2,3.42-1.2,5.74v35.09
		c0,1.99,0.43,3.66,1.3,5.01c0.87,1.35,2.43,2.02,4.68,2.02c0.64,0,1.33-0.11,2.07-0.34c0.74-0.22,1.43-0.59,2.07-1.11
		c0.58-0.51,1.06-1.22,1.45-2.12c0.39-0.9,0.58-2.02,0.58-3.37v-3.37H63.96z"/>
	<path class="st0" d="M67.53,229.79l15.33-68.64h8.19l15.33,68.64h-9.83l-2.89-14.75h-13.4l-2.89,14.75H67.53z M91.82,205.78
		L87,180.91h-0.19l-4.82,24.87H91.82z"/>
	<path class="st0" d="M111.2,229.79v-68.64h9.45l12.63,36.34h0.19L146,161.15h9.54v68.64h-9.83v-41.74h-0.19l-9.74,29.5h-4.92
		l-9.64-29.5h-0.19v41.74H111.2z"/>
	<path class="st0" d="M164.8,229.79v-68.64h14.75c2.7,0,5.08,0.35,7.13,1.06c2.06,0.71,3.92,1.96,5.59,3.76
		c1.67,1.8,2.83,3.9,3.47,6.31c0.64,2.41,0.96,5.67,0.96,9.79c0,3.08-0.18,5.69-0.53,7.81c-0.35,2.12-1.11,4.11-2.27,5.98
		c-1.35,2.25-3.15,4-5.4,5.25c-2.25,1.25-5.21,1.88-8.87,1.88h-5.01v26.8H164.8z M174.63,170.41v23.33h4.72
		c1.99,0,3.53-0.29,4.63-0.87c1.09-0.58,1.89-1.38,2.41-2.41c0.51-0.96,0.82-2.15,0.92-3.57c0.1-1.41,0.15-2.99,0.15-4.72
		c0-1.61-0.03-3.13-0.1-4.58c-0.06-1.45-0.35-2.71-0.87-3.81c-0.51-1.09-1.29-1.93-2.31-2.51c-1.03-0.58-2.51-0.87-4.44-0.87H174.63
		z"/>
	<path class="st0" d="M235.85,180.91h-9.83v-2.22c0-2.25-0.53-4.19-1.59-5.83c-1.06-1.64-2.84-2.46-5.35-2.46
		c-1.35,0-2.44,0.26-3.28,0.77c-0.84,0.51-1.51,1.16-2.03,1.93c-0.51,0.84-0.87,1.78-1.06,2.84c-0.19,1.06-0.29,2.17-0.29,3.33
		c0,1.35,0.05,2.47,0.14,3.37c0.1,0.9,0.34,1.7,0.72,2.41c0.39,0.71,0.95,1.32,1.69,1.83c0.74,0.52,1.75,1.03,3.04,1.54l7.52,2.99
		c2.18,0.84,3.95,1.82,5.3,2.94c1.35,1.12,2.41,2.43,3.18,3.9c0.71,1.54,1.19,3.29,1.45,5.25c0.26,1.96,0.39,4.19,0.39,6.7
		c0,2.89-0.29,5.58-0.87,8.05c-0.58,2.47-1.51,4.58-2.8,6.31c-1.35,1.8-3.12,3.21-5.3,4.24c-2.19,1.03-4.85,1.54-8,1.54
		c-2.38,0-4.6-0.42-6.65-1.25c-2.06-0.83-3.82-1.99-5.3-3.47c-1.48-1.48-2.65-3.2-3.52-5.16c-0.87-1.96-1.3-4.1-1.3-6.41v-3.66h9.83
		v3.09c0,1.8,0.53,3.42,1.59,4.87c1.06,1.45,2.84,2.17,5.35,2.17c1.67,0,2.97-0.24,3.9-0.72c0.93-0.48,1.65-1.17,2.17-2.07
		c0.51-0.9,0.82-1.98,0.92-3.23c0.1-1.25,0.14-2.65,0.14-4.19c0-1.8-0.06-3.28-0.19-4.43c-0.13-1.16-0.39-2.09-0.77-2.8
		c-0.45-0.71-1.05-1.28-1.78-1.73c-0.74-0.45-1.72-0.93-2.94-1.45l-7.04-2.89c-4.24-1.73-7.09-4.03-8.53-6.89
		c-1.45-2.86-2.17-6.44-2.17-10.75c0-2.57,0.35-5.01,1.06-7.33c0.71-2.31,1.77-4.3,3.18-5.98c1.35-1.67,3.07-3,5.16-4
		c2.09-1,4.58-1.49,7.47-1.49c2.44,0,4.68,0.45,6.7,1.35c2.02,0.9,3.77,2.09,5.25,3.57c2.95,3.08,4.43,6.62,4.43,10.6V180.91z"/>
	<path class="st0" d="M261.1,229.79v-68.64h29.31v9.25h-19.47v20.15h16.97v9.25h-16.97v20.15h19.47v9.83H261.1z M261.3,158.07
		l9.45-13.59h9.06l9.45,13.59h-7.52l-6.46-9.16l-6.46,9.16H261.3z"/>
	<path class="st0" d="M303.23,229.79v-59.38h-11.37v-9.25h32.58v9.25h-11.38v59.38H303.23z"/>
	<path class="st0" d="M328.78,229.79v-68.64h29.31v9.25h-19.47v20.15h16.97v9.25h-16.97v20.15h19.47v9.83H328.78z"/>
	<path class="st0" d="M396.26,180.91h-9.83v-2.22c0-2.25-0.53-4.19-1.59-5.83c-1.06-1.64-2.84-2.46-5.35-2.46
		c-1.35,0-2.44,0.26-3.28,0.77c-0.84,0.51-1.51,1.16-2.03,1.93c-0.51,0.84-0.87,1.78-1.06,2.84c-0.19,1.06-0.29,2.17-0.29,3.33
		c0,1.35,0.05,2.47,0.14,3.37c0.1,0.9,0.34,1.7,0.72,2.41c0.39,0.71,0.95,1.32,1.69,1.83c0.74,0.52,1.75,1.03,3.04,1.54l7.52,2.99
		c2.18,0.84,3.95,1.82,5.3,2.94c1.35,1.12,2.41,2.43,3.18,3.9c0.71,1.54,1.19,3.29,1.45,5.25c0.26,1.96,0.39,4.19,0.39,6.7
		c0,2.89-0.29,5.58-0.87,8.05c-0.58,2.47-1.51,4.58-2.8,6.31c-1.35,1.8-3.12,3.21-5.3,4.24c-2.19,1.03-4.85,1.54-8,1.54
		c-2.38,0-4.6-0.42-6.65-1.25c-2.06-0.83-3.82-1.99-5.3-3.47c-1.48-1.48-2.65-3.2-3.52-5.16c-0.87-1.96-1.3-4.1-1.3-6.41v-3.66h9.83
		v3.09c0,1.8,0.53,3.42,1.59,4.87c1.06,1.45,2.84,2.17,5.35,2.17c1.67,0,2.97-0.24,3.9-0.72c0.93-0.48,1.65-1.17,2.17-2.07
		c0.51-0.9,0.82-1.98,0.92-3.23c0.1-1.25,0.14-2.65,0.14-4.19c0-1.8-0.06-3.28-0.19-4.43c-0.13-1.16-0.39-2.09-0.77-2.8
		c-0.45-0.71-1.05-1.28-1.78-1.73c-0.74-0.45-1.72-0.93-2.94-1.45l-7.04-2.89c-4.24-1.73-7.09-4.03-8.53-6.89
		c-1.45-2.86-2.17-6.44-2.17-10.75c0-2.57,0.35-5.01,1.06-7.33c0.71-2.31,1.77-4.3,3.18-5.98c1.35-1.67,3.07-3,5.16-4
		c2.09-1,4.58-1.49,7.47-1.49c2.44,0,4.68,0.45,6.7,1.35c2.02,0.9,3.77,2.09,5.25,3.57c2.95,3.08,4.43,6.62,4.43,10.6V180.91z"/>
	<path class="st0" d="M403.2,208v-9.83h29.02V208H403.2z"/>
	<path class="st0" d="M242.4,276.83l-14.08,68.64h-8.68l-13.98-68.64h10.41l7.81,47.91h0.19l7.91-47.91H242.4z"/>
	<path class="st0" d="M247.7,293.03c0-2.76,0.48-5.21,1.45-7.33c0.96-2.12,2.25-3.89,3.86-5.3c1.54-1.35,3.29-2.38,5.25-3.08
		c1.96-0.71,3.94-1.06,5.93-1.06c1.99,0,3.97,0.35,5.93,1.06c1.96,0.71,3.74,1.73,5.35,3.08c1.54,1.42,2.8,3.18,3.76,5.3
		c0.96,2.12,1.45,4.56,1.45,7.33v36.25c0,2.89-0.48,5.37-1.45,7.42c-0.96,2.06-2.22,3.76-3.76,5.11c-1.61,1.41-3.39,2.47-5.35,3.18
		c-1.96,0.71-3.94,1.06-5.93,1.06c-1.99,0-3.97-0.35-5.93-1.06c-1.96-0.71-3.71-1.77-5.25-3.18c-1.61-1.35-2.89-3.05-3.86-5.11
		c-0.96-2.06-1.45-4.53-1.45-7.42V293.03z M257.54,329.28c0,2.38,0.66,4.13,1.98,5.25c1.32,1.12,2.88,1.69,4.68,1.69
		c1.8,0,3.36-0.56,4.68-1.69c1.32-1.12,1.98-2.88,1.98-5.25v-36.25c0-2.38-0.66-4.13-1.98-5.25c-1.32-1.12-2.88-1.69-4.68-1.69
		c-1.8,0-3.36,0.56-4.68,1.69c-1.32,1.13-1.98,2.88-1.98,5.25V329.28z"/>
	<path class="st0" d="M321.16,276.83v53.21c0,2.25-0.4,4.32-1.2,6.22c-0.8,1.9-1.95,3.58-3.42,5.06c-1.48,1.48-3.18,2.64-5.11,3.47
		c-1.93,0.83-3.99,1.25-6.17,1.25c-2.19,0-4.23-0.42-6.12-1.25c-1.9-0.83-3.58-1.99-5.06-3.47c-1.48-1.48-2.64-3.17-3.47-5.06
		c-0.84-1.89-1.25-3.97-1.25-6.22v-53.21h9.83v52.25c0,2.44,0.58,4.24,1.73,5.4s2.6,1.73,4.34,1.73c1.73,0,3.18-0.58,4.34-1.73
		s1.73-2.96,1.73-5.4v-52.25H321.16z"/>
	<path class="st0" d="M362.23,296.6h-9.83v-2.22c0-2.25-0.53-4.19-1.59-5.83c-1.06-1.64-2.84-2.46-5.35-2.46
		c-1.35,0-2.44,0.26-3.28,0.77c-0.84,0.51-1.51,1.16-2.03,1.93c-0.51,0.84-0.87,1.78-1.06,2.84c-0.19,1.06-0.29,2.17-0.29,3.33
		c0,1.35,0.05,2.47,0.14,3.37c0.1,0.9,0.34,1.7,0.72,2.41c0.39,0.71,0.95,1.32,1.69,1.83c0.74,0.52,1.75,1.03,3.04,1.54l7.52,2.99
		c2.18,0.84,3.95,1.82,5.3,2.94c1.35,1.12,2.41,2.43,3.18,3.9c0.71,1.54,1.19,3.29,1.45,5.25c0.26,1.96,0.39,4.19,0.39,6.7
		c0,2.89-0.29,5.58-0.87,8.05c-0.58,2.47-1.51,4.58-2.8,6.31c-1.35,1.8-3.12,3.21-5.3,4.24c-2.19,1.03-4.85,1.54-8,1.54
		c-2.38,0-4.6-0.42-6.65-1.25c-2.06-0.83-3.82-1.99-5.3-3.47c-1.48-1.48-2.65-3.2-3.52-5.16c-0.87-1.96-1.3-4.1-1.3-6.41v-3.66h9.83
		v3.09c0,1.8,0.53,3.42,1.59,4.87c1.06,1.45,2.84,2.17,5.35,2.17c1.67,0,2.97-0.24,3.9-0.72c0.93-0.48,1.65-1.17,2.17-2.07
		c0.51-0.9,0.82-1.98,0.92-3.23c0.1-1.25,0.14-2.65,0.14-4.19c0-1.8-0.06-3.28-0.19-4.43c-0.13-1.16-0.39-2.09-0.77-2.8
		c-0.45-0.71-1.05-1.28-1.78-1.73c-0.74-0.45-1.72-0.93-2.94-1.45l-7.04-2.89c-4.24-1.73-7.09-4.03-8.53-6.89
		c-1.45-2.86-2.17-6.44-2.17-10.75c0-2.57,0.35-5.01,1.06-7.33c0.71-2.31,1.77-4.3,3.18-5.98c1.35-1.67,3.07-3,5.16-4
		c2.09-1,4.58-1.49,7.47-1.49c2.44,0,4.68,0.45,6.7,1.35c2.02,0.9,3.77,2.09,5.25,3.57c2.95,3.08,4.43,6.62,4.43,10.6V296.6z"/>
	<path class="st0" d="M385.94,296.6v-5.69c0-1.99,0.39-3.89,1.16-5.69c0.77-1.8,1.83-3.37,3.18-4.72c1.35-1.29,2.92-2.31,4.72-3.09
		c1.8-0.77,3.73-1.16,5.78-1.16c2.38,0,4.55,0.48,6.51,1.45c1.96,0.96,3.58,2.31,4.87,4.05c0.64,0.9,1.17,1.72,1.59,2.46
		c0.42,0.74,0.75,1.56,1.01,2.46c0.45,1.61,0.67,3.89,0.67,6.84c0,1.67-0.02,3.07-0.05,4.19c-0.03,1.12-0.11,2.11-0.24,2.94
		c-0.13,0.84-0.29,1.56-0.48,2.17c-0.19,0.61-0.45,1.17-0.77,1.69l-6.65,11.38c-0.45,0.77-0.84,1.56-1.16,2.36
		c-0.32,0.8-0.48,1.66-0.48,2.55v7.71h-9.83v-8.97c0-1.41,0.22-2.76,0.68-4.05c0.45-1.29,1.03-2.54,1.73-3.76l6.17-10.03
		c0.51-0.83,0.85-1.73,1.01-2.7c0.16-0.96,0.24-1.93,0.24-2.89V291c0-1.35-0.47-2.51-1.4-3.47c-0.93-0.96-2.07-1.45-3.42-1.45
		c-1.16,0-2.28,0.42-3.37,1.25c-1.09,0.84-1.64,2.06-1.64,3.66v5.59H385.94z M395.77,345.47v-9.83h9.83v9.83H395.77z"/>
	<path class="st0" d="M422.57,293.8v-16.97h9.83v9.83L422.57,293.8z"/>
</g>
</svg>
