<?xml version="1.0" encoding="utf-8"?>
<!-- Generator: Adobe Illustrator 24.3.0, SVG Export Plug-In . SVG Version: 6.00 Build 0)  -->
<svg version="1.1" id="Calque_1" xmlns="http://www.w3.org/2000/svg" xmlns:xlink="http://www.w3.org/1999/xlink" x="0px" y="0px"
	 viewBox="0 0 463.97 377.93" style="enable-background:new 0 0 463.97 377.93;" xml:space="preserve">
<style type="text/css">
	.st0{fill:#706F6F;}
	.st1{fill:#C2C1C1;}
</style>
<g>
	<path class="st0" d="M-403.29,45.47v16.97h-9.83V52.6L-403.29,45.47z"/>
	<path class="st0" d="M-394.61,114.11V45.47h14.56c5.65,0,9.94,1.54,12.87,4.63c2.92,3.09,4.39,7.46,4.39,13.11v32.1
		c0,6.43-1.56,11.17-4.68,14.22c-3.12,3.05-7.6,4.58-13.45,4.58H-394.61z M-384.78,54.72v50.13h4.53c2.76,0,4.72-0.69,5.88-2.07
		c1.16-1.38,1.73-3.55,1.73-6.51V63.21c0-2.7-0.55-4.79-1.64-6.27c-1.09-1.48-3.08-2.22-5.98-2.22H-384.78z"/>
	<path class="st0" d="M-359.14,114.11l15.33-68.64h8.19l15.33,68.64h-9.83l-2.89-14.75h-13.4l-2.89,14.75H-359.14z M-334.85,90.1
		l-4.82-24.87h-0.19l-4.82,24.87H-334.85z"/>
	<path class="st0" d="M-315.85,114.11V45.47h9.45l14.85,41.36h0.19V45.47h9.83v68.64h-9.25l-15.04-41.26h-0.19v41.26H-315.85z"/>
	<path class="st0" d="M-240.85,65.23h-9.83v-2.22c0-2.25-0.53-4.19-1.59-5.83s-2.84-2.46-5.35-2.46c-1.35,0-2.44,0.26-3.28,0.77
		c-0.84,0.51-1.51,1.16-2.03,1.93c-0.51,0.84-0.87,1.78-1.06,2.84c-0.19,1.06-0.29,2.17-0.29,3.33c0,1.35,0.05,2.47,0.14,3.37
		c0.1,0.9,0.34,1.7,0.72,2.41c0.39,0.71,0.95,1.32,1.69,1.83c0.74,0.52,1.75,1.03,3.04,1.54l7.52,2.99c2.18,0.84,3.95,1.82,5.3,2.94
		c1.35,1.12,2.41,2.43,3.18,3.9c0.71,1.54,1.19,3.29,1.45,5.25c0.26,1.96,0.39,4.19,0.39,6.7c0,2.89-0.29,5.58-0.87,8.05
		c-0.58,2.47-1.51,4.58-2.8,6.31c-1.35,1.8-3.12,3.21-5.3,4.24c-2.19,1.03-4.85,1.54-8,1.54c-2.38,0-4.6-0.42-6.65-1.25
		c-2.06-0.83-3.82-1.99-5.3-3.47c-1.48-1.48-2.65-3.2-3.52-5.16c-0.87-1.96-1.3-4.1-1.3-6.41v-3.66h9.83v3.09
		c0,1.8,0.53,3.42,1.59,4.87c1.06,1.45,2.84,2.17,5.35,2.17c1.67,0,2.97-0.24,3.9-0.72c0.93-0.48,1.65-1.17,2.17-2.07
		c0.51-0.9,0.82-1.98,0.92-3.23c0.1-1.25,0.14-2.65,0.14-4.19c0-1.8-0.06-3.28-0.19-4.43c-0.13-1.16-0.39-2.09-0.77-2.8
		c-0.45-0.71-1.05-1.28-1.78-1.73c-0.74-0.45-1.72-0.93-2.94-1.45l-7.04-2.89c-4.24-1.73-7.09-4.03-8.53-6.89
		c-1.45-2.86-2.17-6.44-2.17-10.75c0-2.57,0.35-5.01,1.06-7.33c0.71-2.31,1.77-4.3,3.18-5.98c1.35-1.67,3.07-3,5.16-4
		c2.09-1,4.58-1.49,7.47-1.49c2.44,0,4.68,0.45,6.7,1.35c2.02,0.9,3.77,2.09,5.25,3.57c2.95,3.08,4.43,6.62,4.43,10.6V65.23z"/>
	<path class="st0" d="M-216.18,61.67c0-2.76,0.48-5.21,1.45-7.33c0.96-2.12,2.25-3.89,3.86-5.3c1.54-1.35,3.29-2.38,5.25-3.08
		c1.96-0.71,3.94-1.06,5.93-1.06c1.99,0,3.97,0.35,5.93,1.06c1.96,0.71,3.74,1.73,5.35,3.08c1.54,1.42,2.8,3.18,3.76,5.3
		c0.96,2.12,1.45,4.56,1.45,7.33v36.25c0,2.7-0.48,5.05-1.45,7.04l6.07,4.92l-5.01,5.98l-5.78-4.72c-2.96,2.38-6.4,3.57-10.32,3.57
		c-1.99,0-3.97-0.35-5.93-1.06c-1.96-0.71-3.71-1.77-5.25-3.18c-1.61-1.35-2.89-3.05-3.86-5.11c-0.96-2.06-1.45-4.53-1.45-7.42
		V61.67z M-206.34,97.91c0,2.38,0.66,4.13,1.98,5.25c1.32,1.12,2.88,1.69,4.68,1.69c0.9,0,1.61-0.13,2.12-0.39l-4.43-3.57l5.01-5.98
		l3.95,3.18v-0.19V61.67c0-2.38-0.66-4.13-1.98-5.25c-1.32-1.12-2.88-1.69-4.68-1.69c-1.8,0-3.36,0.56-4.68,1.69
		c-1.32,1.13-1.98,2.88-1.98,5.25V97.91z"/>
	<path class="st0" d="M-142.72,45.47v53.21c0,2.25-0.4,4.32-1.2,6.22c-0.81,1.9-1.95,3.58-3.42,5.06c-1.48,1.48-3.18,2.64-5.11,3.47
		c-1.93,0.83-3.99,1.25-6.17,1.25c-2.19,0-4.23-0.42-6.12-1.25c-1.9-0.83-3.58-1.99-5.06-3.47c-1.48-1.48-2.64-3.17-3.47-5.06
		c-0.84-1.89-1.25-3.97-1.25-6.22V45.47h9.83v52.25c0,2.44,0.58,4.24,1.73,5.4c1.16,1.16,2.6,1.73,4.34,1.73s3.18-0.58,4.34-1.73
		c1.16-1.16,1.73-2.96,1.73-5.4V45.47H-142.72z"/>
	<path class="st0" d="M-133.47,114.11V45.47h29.31v9.25h-19.47v20.15h16.97v9.25h-16.97v20.15h19.47v9.83H-133.47z"/>
	<path class="st0" d="M-97.8,114.11V45.47h9.83v58.81h19.47v9.83H-97.8z"/>
	<path class="st0" d="M-439.25,210.22v4.24c0,2.12-0.4,4.13-1.2,6.03c-0.8,1.9-1.91,3.58-3.33,5.06c-1.41,1.48-3.07,2.65-4.96,3.52
		c-1.9,0.87-3.94,1.3-6.12,1.3c-1.86,0-3.76-0.26-5.69-0.77c-1.93-0.51-3.66-1.41-5.21-2.7c-1.54-1.28-2.81-2.94-3.81-4.96
		c-1-2.02-1.49-4.61-1.49-7.76v-37.79c0-2.25,0.39-4.34,1.16-6.27c0.77-1.93,1.86-3.6,3.28-5.01c1.41-1.41,3.1-2.52,5.06-3.33
		c1.96-0.8,4.13-1.21,6.51-1.21c4.63,0,8.39,1.51,11.28,4.53c1.41,1.48,2.52,3.23,3.33,5.25c0.8,2.02,1.2,4.23,1.2,6.6v3.86h-9.83
		v-3.28c0-1.93-0.55-3.6-1.64-5.01c-1.09-1.41-2.57-2.12-4.43-2.12c-2.44,0-4.07,0.76-4.87,2.27c-0.8,1.51-1.2,3.42-1.2,5.74v35.09
		c0,1.99,0.43,3.66,1.3,5.01c0.87,1.35,2.43,2.02,4.68,2.02c0.64,0,1.33-0.11,2.07-0.34c0.74-0.22,1.43-0.59,2.07-1.11
		c0.58-0.51,1.06-1.22,1.45-2.12c0.39-0.9,0.58-2.02,0.58-3.37v-3.37H-439.25z"/>
	<path class="st0" d="M-435.68,229.79l15.33-68.64h8.19l15.33,68.64h-9.83l-2.89-14.75h-13.4l-2.89,14.75H-435.68z M-411.39,205.78
		l-4.82-24.87h-0.19l-4.82,24.87H-411.39z"/>
	<path class="st0" d="M-392.01,229.79v-68.64h9.45l12.63,36.34h0.19l12.53-36.34h9.54v68.64h-9.83v-41.74h-0.19l-9.74,29.5h-4.92
		l-9.64-29.5h-0.19v41.74H-392.01z"/>
	<path class="st0" d="M-338.41,229.79v-68.64h14.75c2.7,0,5.08,0.35,7.13,1.06c2.06,0.71,3.92,1.96,5.59,3.76
		c1.67,1.8,2.83,3.9,3.47,6.31c0.64,2.41,0.96,5.67,0.96,9.79c0,3.08-0.18,5.69-0.53,7.81c-0.35,2.12-1.11,4.11-2.27,5.98
		c-1.35,2.25-3.15,4-5.4,5.25c-2.25,1.25-5.21,1.88-8.87,1.88h-5.01v26.8H-338.41z M-328.58,170.41v23.33h4.72
		c1.99,0,3.53-0.29,4.63-0.87c1.09-0.58,1.89-1.38,2.41-2.41c0.51-0.96,0.82-2.15,0.92-3.57c0.1-1.41,0.15-2.99,0.15-4.72
		c0-1.61-0.03-3.13-0.1-4.58c-0.06-1.45-0.35-2.71-0.87-3.81c-0.51-1.09-1.29-1.93-2.31-2.51c-1.03-0.58-2.51-0.87-4.44-0.87
		H-328.58z"/>
	<path class="st0" d="M-267.36,180.91h-9.83v-2.22c0-2.25-0.53-4.19-1.59-5.83c-1.06-1.64-2.84-2.46-5.35-2.46
		c-1.35,0-2.44,0.26-3.28,0.77c-0.84,0.51-1.51,1.16-2.03,1.93c-0.51,0.84-0.87,1.78-1.06,2.84c-0.19,1.06-0.29,2.17-0.29,3.33
		c0,1.35,0.05,2.47,0.14,3.37c0.1,0.9,0.34,1.7,0.72,2.41c0.39,0.71,0.95,1.32,1.69,1.83c0.74,0.52,1.75,1.03,3.04,1.54l7.52,2.99
		c2.18,0.84,3.95,1.82,5.3,2.94c1.35,1.12,2.41,2.43,3.18,3.9c0.71,1.54,1.19,3.29,1.45,5.25c0.26,1.96,0.39,4.19,0.39,6.7
		c0,2.89-0.29,5.58-0.87,8.05c-0.58,2.47-1.51,4.58-2.8,6.31c-1.35,1.8-3.12,3.21-5.3,4.24c-2.19,1.03-4.85,1.54-8,1.54
		c-2.38,0-4.6-0.42-6.65-1.25c-2.06-0.83-3.82-1.99-5.3-3.47c-1.48-1.48-2.65-3.2-3.52-5.16c-0.87-1.96-1.3-4.1-1.3-6.41v-3.66h9.83
		v3.09c0,1.8,0.53,3.42,1.59,4.87c1.06,1.45,2.84,2.17,5.35,2.17c1.67,0,2.97-0.24,3.9-0.72c0.93-0.48,1.65-1.17,2.17-2.07
		c0.51-0.9,0.82-1.98,0.92-3.23c0.1-1.25,0.14-2.65,0.14-4.19c0-1.8-0.06-3.28-0.19-4.43c-0.13-1.16-0.39-2.09-0.77-2.8
		c-0.45-0.71-1.05-1.28-1.78-1.73c-0.74-0.45-1.72-0.93-2.94-1.45l-7.04-2.89c-4.24-1.73-7.09-4.03-8.53-6.89
		c-1.45-2.86-2.17-6.44-2.17-10.75c0-2.57,0.35-5.01,1.06-7.33c0.71-2.31,1.77-4.3,3.18-5.98c1.35-1.67,3.07-3,5.16-4
		c2.09-1,4.58-1.49,7.47-1.49c2.44,0,4.68,0.45,6.7,1.35c2.02,0.9,3.77,2.09,5.25,3.57c2.95,3.08,4.43,6.62,4.43,10.6V180.91z"/>
	<path class="st0" d="M-242.11,229.79v-68.64h29.31v9.25h-19.47v20.15h16.97v9.25h-16.97v20.15h19.47v9.83H-242.11z M-241.91,158.07
		l9.45-13.59h9.06l9.45,13.59h-7.52l-6.46-9.16l-6.46,9.16H-241.91z"/>
	<path class="st0" d="M-199.98,229.79v-59.38h-11.37v-9.25h32.58v9.25h-11.38v59.38H-199.98z"/>
	<path class="st0" d="M-174.43,229.79v-68.64h29.31v9.25h-19.47v20.15h16.97v9.25h-16.97v20.15h19.47v9.83H-174.43z"/>
	<path class="st0" d="M-106.95,180.91h-9.83v-2.22c0-2.25-0.53-4.19-1.59-5.83c-1.06-1.64-2.84-2.46-5.35-2.46
		c-1.35,0-2.44,0.26-3.28,0.77c-0.84,0.51-1.51,1.16-2.03,1.93c-0.51,0.84-0.87,1.78-1.06,2.84c-0.19,1.06-0.29,2.17-0.29,3.33
		c0,1.35,0.05,2.47,0.14,3.37c0.1,0.9,0.34,1.7,0.72,2.41c0.39,0.71,0.95,1.32,1.69,1.83c0.74,0.52,1.75,1.03,3.04,1.54l7.52,2.99
		c2.18,0.84,3.95,1.82,5.3,2.94c1.35,1.12,2.41,2.43,3.18,3.9c0.71,1.54,1.19,3.29,1.45,5.25c0.26,1.96,0.39,4.19,0.39,6.7
		c0,2.89-0.29,5.58-0.87,8.05c-0.58,2.47-1.51,4.58-2.8,6.31c-1.35,1.8-3.12,3.21-5.3,4.24c-2.19,1.03-4.85,1.54-8,1.54
		c-2.38,0-4.6-0.42-6.65-1.25c-2.06-0.83-3.82-1.99-5.3-3.47c-1.48-1.48-2.65-3.2-3.52-5.16c-0.87-1.96-1.3-4.1-1.3-6.41v-3.66h9.83
		v3.09c0,1.8,0.53,3.42,1.59,4.87c1.06,1.45,2.84,2.17,5.35,2.17c1.67,0,2.97-0.24,3.9-0.72c0.93-0.48,1.65-1.17,2.17-2.07
		c0.51-0.9,0.82-1.98,0.92-3.23c0.1-1.25,0.14-2.65,0.14-4.19c0-1.8-0.06-3.28-0.19-4.43c-0.13-1.16-0.39-2.09-0.77-2.8
		c-0.45-0.71-1.05-1.28-1.78-1.73c-0.74-0.45-1.72-0.93-2.94-1.45l-7.04-2.89c-4.24-1.73-7.09-4.03-8.53-6.89
		c-1.45-2.86-2.17-6.44-2.17-10.75c0-2.57,0.35-5.01,1.06-7.33c0.71-2.31,1.77-4.3,3.18-5.98c1.35-1.67,3.07-3,5.16-4
		c2.09-1,4.58-1.49,7.47-1.49c2.44,0,4.68,0.45,6.7,1.35c2.02,0.9,3.77,2.09,5.25,3.57c2.95,3.08,4.43,6.62,4.43,10.6V180.91z"/>
	<path class="st0" d="M-100.01,208v-9.83H-71V208H-100.01z"/>
	<path class="st0" d="M-260.81,276.83l-14.08,68.64h-8.68l-13.98-68.64h10.41l7.81,47.91h0.19l7.91-47.91H-260.81z"/>
	<path class="st0" d="M-255.51,293.03c0-2.76,0.48-5.21,1.45-7.33c0.96-2.12,2.25-3.89,3.86-5.3c1.54-1.35,3.29-2.38,5.25-3.08
		c1.96-0.71,3.94-1.06,5.93-1.06c1.99,0,3.97,0.35,5.93,1.06c1.96,0.71,3.74,1.73,5.35,3.08c1.54,1.42,2.8,3.18,3.76,5.3
		c0.96,2.12,1.45,4.56,1.45,7.33v36.25c0,2.89-0.48,5.37-1.45,7.42c-0.96,2.06-2.22,3.76-3.76,5.11c-1.61,1.41-3.39,2.47-5.35,3.18
		c-1.96,0.71-3.94,1.06-5.93,1.06c-1.99,0-3.97-0.35-5.93-1.06c-1.96-0.71-3.71-1.77-5.25-3.18c-1.61-1.35-2.89-3.05-3.86-5.11
		c-0.96-2.06-1.45-4.53-1.45-7.42V293.03z M-245.67,329.28c0,2.38,0.66,4.13,1.98,5.25c1.32,1.12,2.88,1.69,4.68,1.69
		c1.8,0,3.36-0.56,4.68-1.69c1.32-1.12,1.98-2.88,1.98-5.25v-36.25c0-2.38-0.66-4.13-1.98-5.25c-1.32-1.12-2.88-1.69-4.68-1.69
		c-1.8,0-3.36,0.56-4.68,1.69c-1.32,1.13-1.98,2.88-1.98,5.25V329.28z"/>
	<path class="st0" d="M-182.05,276.83v53.21c0,2.25-0.4,4.32-1.2,6.22c-0.81,1.9-1.95,3.58-3.42,5.06
		c-1.48,1.48-3.18,2.64-5.11,3.47c-1.93,0.83-3.99,1.25-6.17,1.25c-2.19,0-4.23-0.42-6.12-1.25c-1.9-0.83-3.58-1.99-5.06-3.47
		c-1.48-1.48-2.64-3.17-3.47-5.06c-0.84-1.89-1.25-3.97-1.25-6.22v-53.21h9.83v52.25c0,2.44,0.58,4.24,1.73,5.4
		c1.16,1.16,2.6,1.73,4.34,1.73s3.18-0.58,4.34-1.73c1.16-1.16,1.73-2.96,1.73-5.4v-52.25H-182.05z"/>
	<path class="st0" d="M-140.98,296.6h-9.83v-2.22c0-2.25-0.53-4.19-1.59-5.83c-1.06-1.64-2.84-2.46-5.35-2.46
		c-1.35,0-2.44,0.26-3.28,0.77c-0.84,0.51-1.51,1.16-2.03,1.93c-0.51,0.84-0.87,1.78-1.06,2.84c-0.19,1.06-0.29,2.17-0.29,3.33
		c0,1.35,0.05,2.47,0.14,3.37c0.1,0.9,0.34,1.7,0.72,2.41c0.39,0.71,0.95,1.32,1.69,1.83c0.74,0.52,1.75,1.03,3.04,1.54l7.52,2.99
		c2.18,0.84,3.95,1.82,5.3,2.94c1.35,1.12,2.41,2.43,3.18,3.9c0.71,1.54,1.19,3.29,1.45,5.25c0.26,1.96,0.39,4.19,0.39,6.7
		c0,2.89-0.29,5.58-0.87,8.05c-0.58,2.47-1.51,4.58-2.8,6.31c-1.35,1.8-3.12,3.21-5.3,4.24c-2.19,1.03-4.85,1.54-8,1.54
		c-2.38,0-4.6-0.42-6.65-1.25c-2.06-0.83-3.82-1.99-5.3-3.47c-1.48-1.48-2.65-3.2-3.52-5.16c-0.87-1.96-1.3-4.1-1.3-6.41v-3.66h9.83
		v3.09c0,1.8,0.53,3.42,1.59,4.87c1.06,1.45,2.84,2.17,5.35,2.17c1.67,0,2.97-0.24,3.9-0.72c0.93-0.48,1.65-1.17,2.17-2.07
		c0.51-0.9,0.82-1.98,0.92-3.23c0.1-1.25,0.14-2.65,0.14-4.19c0-1.8-0.06-3.28-0.19-4.43c-0.13-1.16-0.39-2.09-0.77-2.8
		c-0.45-0.71-1.05-1.28-1.78-1.73c-0.74-0.45-1.72-0.93-2.94-1.45l-7.04-2.89c-4.24-1.73-7.09-4.03-8.53-6.89
		c-1.45-2.86-2.17-6.44-2.17-10.75c0-2.57,0.35-5.01,1.06-7.33c0.71-2.31,1.77-4.3,3.18-5.98c1.35-1.67,3.07-3,5.16-4
		c2.09-1,4.58-1.49,7.47-1.49c2.44,0,4.68,0.45,6.7,1.35c2.02,0.9,3.77,2.09,5.25,3.57c2.95,3.08,4.43,6.62,4.43,10.6V296.6z"/>
	<path class="st0" d="M-117.27,296.6v-5.69c0-1.99,0.39-3.89,1.16-5.69c0.77-1.8,1.83-3.37,3.18-4.72c1.35-1.29,2.92-2.31,4.72-3.09
		c1.8-0.77,3.73-1.16,5.78-1.16c2.38,0,4.55,0.48,6.51,1.45c1.96,0.96,3.58,2.31,4.87,4.05c0.64,0.9,1.17,1.72,1.59,2.46
		c0.42,0.74,0.75,1.56,1.01,2.46c0.45,1.61,0.67,3.89,0.67,6.84c0,1.67-0.02,3.07-0.05,4.19c-0.03,1.12-0.11,2.11-0.24,2.94
		c-0.13,0.84-0.29,1.56-0.48,2.17c-0.19,0.61-0.45,1.17-0.77,1.69l-6.65,11.38c-0.45,0.77-0.84,1.56-1.16,2.36
		c-0.32,0.8-0.48,1.66-0.48,2.55v7.71h-9.83v-8.97c0-1.41,0.22-2.76,0.68-4.05c0.45-1.29,1.03-2.54,1.73-3.76l6.17-10.03
		c0.51-0.83,0.85-1.73,1.01-2.7c0.16-0.96,0.24-1.93,0.24-2.89V291c0-1.35-0.47-2.51-1.4-3.47c-0.93-0.96-2.07-1.45-3.42-1.45
		c-1.16,0-2.28,0.42-3.37,1.25c-1.09,0.84-1.64,2.06-1.64,3.66v5.59H-117.27z M-107.44,345.47v-9.83h9.83v9.83H-107.44z"/>
	<path class="st0" d="M-80.64,293.8v-16.97h9.83v9.83L-80.64,293.8z"/>
</g>
<g>
	<path class="st1" d="M57.05,96.52v12.67H49.7v-7.34L57.05,96.52z"/>
	<path class="st1" d="M63.53,147.78V96.52h11.81c8.64,0,12.96,5.02,12.96,15.05c0,3.02-0.47,5.59-1.4,7.7
		c-0.94,2.11-2.58,3.82-4.93,5.11l7.92,23.4H82.1l-6.84-21.89h-4.39v21.89H63.53z M70.87,103.43v15.98h4.18
		c1.3,0,2.33-0.18,3.1-0.54c0.77-0.36,1.37-0.88,1.8-1.55c0.38-0.67,0.65-1.5,0.79-2.48c0.14-0.98,0.22-2.12,0.22-3.42
		s-0.07-2.44-0.22-3.42c-0.14-0.98-0.43-1.84-0.86-2.56c-0.91-1.34-2.64-2.02-5.18-2.02H70.87z"/>
	<path class="st1" d="M115.01,132.3h-14.54v4.97c0,1.15,0.32,2.04,0.97,2.66c0.65,0.62,1.52,0.94,2.63,0.94
		c1.39,0,2.32-0.41,2.77-1.22c0.46-0.82,0.73-1.63,0.83-2.45h7.34c0,3.22-0.98,5.81-2.95,7.78c-0.96,1.01-2.11,1.8-3.46,2.38
		c-1.34,0.58-2.86,0.86-4.54,0.86c-2.3,0-4.26-0.48-5.87-1.44c-1.61-0.96-2.84-2.23-3.71-3.82c-0.53-0.96-0.89-2.06-1.08-3.31
		c-0.19-1.25-0.29-2.62-0.29-4.1v-12.02c0-1.49,0.1-2.85,0.29-4.1c0.19-1.25,0.55-2.35,1.08-3.31c0.86-1.58,2.1-2.85,3.71-3.82
		c1.61-0.96,3.56-1.44,5.87-1.44c1.68,0,3.2,0.29,4.57,0.86c1.37,0.58,2.53,1.37,3.49,2.38c1.92,2.16,2.88,4.87,2.88,8.14V132.3z
		 M100.46,126.54h7.2v-4.18c0-1.39-0.32-2.44-0.97-3.13c-0.65-0.7-1.52-1.04-2.63-1.04c-1.1,0-1.98,0.35-2.63,1.04
		c-0.65,0.7-0.97,1.74-0.97,3.13V126.54z"/>
	<path class="st1" d="M127.75,152.03c0.05,0.86,0.4,1.68,1.04,2.45c0.65,0.77,1.6,1.15,2.84,1.15c1.2,0,2.06-0.37,2.59-1.12
		c0.53-0.74,0.79-1.69,0.79-2.84v-7.2h-0.14c-0.82,1.2-1.79,2.12-2.92,2.77c-1.13,0.65-2.44,0.97-3.92,0.97
		c-3.07,0-5.21-1.15-6.41-3.46c-0.43-0.82-0.74-1.82-0.94-3.02c-0.19-1.2-0.29-2.81-0.29-4.82v-13.9c0-2.64,0.07-4.58,0.22-5.83
		c0.29-2.4,1.42-4.2,3.38-5.4c0.91-0.62,2.28-0.94,4.1-0.94c0.91,0,1.69,0.1,2.34,0.29c0.65,0.19,1.24,0.46,1.76,0.79
		c0.53,0.34,1.01,0.73,1.44,1.19c0.43,0.46,0.89,0.95,1.37,1.48v-3.31h7.34v40.97c0,1.25-0.2,2.51-0.61,3.78
		c-0.41,1.27-1.07,2.41-1.98,3.42c-0.91,1.06-2.06,1.91-3.46,2.56c-1.39,0.65-3.05,0.97-4.97,0.97c-1.1,0-2.26-0.18-3.46-0.54
		c-1.2-0.36-2.3-0.97-3.31-1.84c-1.06-0.82-1.96-1.91-2.7-3.28c-0.74-1.37-1.24-3.13-1.48-5.29H127.75z M127.75,136.55
		c0,1.15,0.25,2.16,0.76,3.02s1.45,1.3,2.84,1.3c1.06,0,1.93-0.37,2.63-1.12c0.69-0.74,1.04-1.69,1.04-2.84v-14.18
		c0-1.34-0.34-2.44-1.01-3.28c-0.67-0.84-1.56-1.26-2.66-1.26c-1.25,0-2.16,0.46-2.74,1.37c-0.58,0.91-0.86,2.11-0.86,3.6V136.55z"
		/>
	<path class="st1" d="M162.31,147.78v-3.74h-0.14c-0.96,1.34-1.93,2.38-2.92,3.1c-0.98,0.72-2.36,1.08-4.14,1.08
		c-0.86,0-1.74-0.13-2.63-0.4c-0.89-0.26-1.74-0.76-2.56-1.48c-0.82-0.67-1.48-1.64-1.98-2.92c-0.5-1.27-0.76-2.92-0.76-4.93
		c0-2.06,0.17-3.88,0.5-5.44c0.33-1.56,0.96-2.87,1.87-3.92c0.86-1.01,2.04-1.76,3.53-2.27c1.49-0.5,3.38-0.76,5.69-0.76
		c0.24,0,0.5,0,0.79,0s0.55,0.02,0.79,0.07c0.24,0.05,0.53,0.07,0.86,0.07c0.34,0,0.7,0.02,1.08,0.07v-3.82
		c0-1.25-0.26-2.28-0.79-3.1c-0.53-0.82-1.49-1.22-2.88-1.22c-0.96,0-1.84,0.31-2.63,0.94c-0.79,0.62-1.31,1.54-1.55,2.74h-7.13
		c0.19-3.26,1.3-5.9,3.31-7.92c0.96-0.96,2.11-1.72,3.46-2.27c1.34-0.55,2.86-0.83,4.54-0.83c1.54,0,2.98,0.24,4.32,0.72
		c1.34,0.48,2.52,1.2,3.53,2.16c0.96,0.96,1.73,2.16,2.3,3.6c0.58,1.44,0.86,3.12,0.86,5.04v25.42H162.31z M162.31,132.08
		c-0.82-0.14-1.49-0.22-2.02-0.22c-1.58,0-2.94,0.37-4.07,1.12c-1.13,0.74-1.69,2.1-1.69,4.07c0,1.39,0.34,2.52,1.01,3.38
		c0.67,0.86,1.61,1.3,2.81,1.3c1.25,0,2.22-0.41,2.92-1.22c0.7-0.82,1.04-1.97,1.04-3.46V132.08z"/>
	<path class="st1" d="M175.05,147.78v-36.5h7.34v3.89c1.49-1.34,2.95-2.4,4.39-3.17c1.44-0.77,3.22-1.15,5.33-1.15v7.78
		c-0.72-0.29-1.46-0.43-2.23-0.43c-0.77,0-1.6,0.13-2.48,0.4c-0.89,0.26-1.69,0.71-2.41,1.33c-0.77,0.62-1.39,1.44-1.87,2.45
		c-0.48,1.01-0.72,2.26-0.72,3.74v21.67H175.05z"/>
	<path class="st1" d="M209.69,147.78v-3.31c-0.48,0.53-0.94,1.02-1.37,1.48c-0.43,0.46-0.91,0.85-1.44,1.19
		c-0.53,0.34-1.13,0.6-1.8,0.79c-0.67,0.19-1.46,0.29-2.38,0.29c-3.07,0-5.21-1.15-6.41-3.46c-0.43-0.82-0.74-1.82-0.94-3.02
		c-0.19-1.2-0.29-2.81-0.29-4.82v-13.9c0-2.64,0.07-4.58,0.22-5.83c0.29-2.4,1.42-4.2,3.38-5.4c0.91-0.62,2.28-0.94,4.1-0.94
		c1.44,0,2.72,0.32,3.85,0.97c1.13,0.65,2.1,1.57,2.92,2.77h0.14V96.52h7.34v51.26H209.69z M202.41,135.9c0,1.49,0.29,2.69,0.86,3.6
		c0.58,0.91,1.49,1.37,2.74,1.37c1.1,0,1.99-0.42,2.66-1.26c0.67-0.84,1.01-1.93,1.01-3.28v-14.18c0-1.15-0.35-2.1-1.04-2.84
		c-0.7-0.74-1.57-1.12-2.63-1.12c-1.39,0-2.34,0.43-2.84,1.3c-0.5,0.86-0.76,1.87-0.76,3.02V135.9z"/>
	<path class="st1" d="M244.32,132.3h-14.54v4.97c0,1.15,0.32,2.04,0.97,2.66c0.65,0.62,1.52,0.94,2.63,0.94
		c1.39,0,2.32-0.41,2.77-1.22c0.46-0.82,0.73-1.63,0.83-2.45h7.34c0,3.22-0.98,5.81-2.95,7.78c-0.96,1.01-2.11,1.8-3.46,2.38
		c-1.34,0.58-2.86,0.86-4.54,0.86c-2.3,0-4.26-0.48-5.87-1.44c-1.61-0.96-2.84-2.23-3.71-3.82c-0.53-0.96-0.89-2.06-1.08-3.31
		c-0.19-1.25-0.29-2.62-0.29-4.1v-12.02c0-1.49,0.1-2.85,0.29-4.1c0.19-1.25,0.55-2.35,1.08-3.31c0.86-1.58,2.1-2.85,3.71-3.82
		c1.61-0.96,3.56-1.44,5.87-1.44c1.68,0,3.2,0.29,4.57,0.86c1.37,0.58,2.53,1.37,3.49,2.38c1.92,2.16,2.88,4.87,2.88,8.14V132.3z
		 M229.77,126.54h7.2v-4.18c0-1.39-0.32-2.44-0.97-3.13c-0.65-0.7-1.52-1.04-2.63-1.04c-1.1,0-1.98,0.35-2.63,1.04
		c-0.65,0.7-0.97,1.74-0.97,3.13V126.54z"/>
	<path class="st1" d="M247.92,147.78v-5.83l11.88-24.19h-10.94v-6.48h19.3v5.83l-11.88,23.76h11.88v6.91H247.92z"/>
	<path class="st1" d="M170.73,219.78v-3.74h-0.14c-0.96,1.34-1.93,2.38-2.92,3.1c-0.98,0.72-2.36,1.08-4.14,1.08
		c-0.86,0-1.74-0.13-2.63-0.4c-0.89-0.26-1.74-0.76-2.56-1.48c-0.82-0.67-1.48-1.64-1.98-2.92c-0.5-1.27-0.76-2.92-0.76-4.93
		c0-2.06,0.17-3.88,0.5-5.44c0.33-1.56,0.96-2.87,1.87-3.92c0.86-1.01,2.04-1.76,3.53-2.27c1.49-0.5,3.38-0.76,5.69-0.76
		c0.24,0,0.5,0,0.79,0s0.55,0.02,0.79,0.07c0.24,0.05,0.53,0.07,0.86,0.07c0.34,0,0.7,0.02,1.08,0.07v-3.82
		c0-1.25-0.26-2.28-0.79-3.1c-0.53-0.82-1.49-1.22-2.88-1.22c-0.96,0-1.84,0.31-2.63,0.94c-0.79,0.62-1.31,1.54-1.55,2.74h-7.13
		c0.19-3.26,1.3-5.9,3.31-7.92c0.96-0.96,2.11-1.72,3.46-2.27c1.34-0.55,2.86-0.83,4.54-0.83c1.54,0,2.98,0.24,4.32,0.72
		c1.34,0.48,2.52,1.2,3.53,2.16c0.96,0.96,1.73,2.16,2.3,3.6c0.58,1.44,0.86,3.12,0.86,5.04v25.42H170.73z M170.73,204.08
		c-0.82-0.14-1.49-0.22-2.02-0.22c-1.58,0-2.94,0.37-4.07,1.12c-1.13,0.74-1.69,2.1-1.69,4.07c0,1.39,0.34,2.52,1.01,3.38
		c0.67,0.86,1.61,1.3,2.81,1.3c1.25,0,2.22-0.41,2.92-1.22c0.7-0.82,1.04-1.97,1.04-3.46V204.08z"/>
	<path class="st1" d="M205.43,183.28v36.5h-7.34v-3.53h-0.14c-0.77,1.15-1.69,2.1-2.77,2.84s-2.46,1.12-4.14,1.12
		c-0.91,0-1.82-0.16-2.74-0.47c-0.91-0.31-1.73-0.83-2.45-1.55c-0.72-0.72-1.3-1.64-1.73-2.77c-0.43-1.13-0.65-2.51-0.65-4.14
		v-28.01h7.34v25.27c0,1.34,0.31,2.4,0.94,3.17c0.62,0.77,1.51,1.15,2.66,1.15c1.39,0,2.35-0.43,2.88-1.3
		c0.53-0.86,0.79-2.11,0.79-3.74v-24.55H205.43z"/>
	<path class="st1" d="M211.48,183.28v-11.09h7.34v11.09h4.54v5.76h-4.54v20.23c0,0.86,0.08,1.54,0.25,2.02
		c0.17,0.48,0.44,0.84,0.83,1.08c0.38,0.24,0.85,0.38,1.4,0.43c0.55,0.05,1.24,0.07,2.05,0.07v6.91h-3.02
		c-1.68,0-3.08-0.26-4.21-0.79c-1.13-0.53-2.03-1.2-2.7-2.02c-0.67-0.82-1.16-1.74-1.48-2.77c-0.31-1.03-0.47-2.03-0.47-2.99v-22.18
		h-3.67v-5.76H211.48z"/>
	<path class="st1" d="M225.52,195.52c0-1.49,0.1-2.85,0.29-4.1c0.19-1.25,0.55-2.35,1.08-3.31c0.86-1.58,2.1-2.85,3.71-3.82
		c1.61-0.96,3.56-1.44,5.87-1.44c2.3,0,4.26,0.48,5.87,1.44c1.61,0.96,2.84,2.23,3.71,3.82c0.53,0.96,0.89,2.06,1.08,3.31
		c0.19,1.25,0.29,2.62,0.29,4.1v12.02c0,1.49-0.1,2.86-0.29,4.1c-0.19,1.25-0.55,2.35-1.08,3.31c-0.86,1.58-2.1,2.86-3.71,3.82
		c-1.61,0.96-3.56,1.44-5.87,1.44c-2.3,0-4.26-0.48-5.87-1.44c-1.61-0.96-2.84-2.23-3.71-3.82c-0.53-0.96-0.89-2.06-1.08-3.31
		c-0.19-1.25-0.29-2.62-0.29-4.1V195.52z M232.86,208.69c0,1.39,0.32,2.44,0.97,3.13c0.65,0.7,1.52,1.04,2.63,1.04
		c1.1,0,1.98-0.35,2.63-1.04c0.65-0.7,0.97-1.74,0.97-3.13v-14.33c0-1.39-0.32-2.44-0.97-3.13c-0.65-0.7-1.52-1.04-2.63-1.04
		c-1.1,0-1.98,0.35-2.63,1.04c-0.65,0.7-0.97,1.74-0.97,3.13V208.69z"/>
	<path class="st1" d="M274.77,183.28v36.5h-7.34v-3.53h-0.14c-0.77,1.15-1.69,2.1-2.77,2.84s-2.46,1.12-4.14,1.12
		c-0.91,0-1.82-0.16-2.74-0.47c-0.91-0.31-1.73-0.83-2.45-1.55c-0.72-0.72-1.3-1.64-1.73-2.77c-0.43-1.13-0.65-2.51-0.65-4.14
		v-28.01h7.34v25.27c0,1.34,0.31,2.4,0.94,3.17c0.62,0.77,1.51,1.15,2.66,1.15c1.39,0,2.35-0.43,2.88-1.3
		c0.53-0.86,0.79-2.11,0.79-3.74v-24.55H274.77z"/>
	<path class="st1" d="M280.82,219.78v-36.5h7.34v3.89c1.49-1.34,2.95-2.4,4.39-3.17c1.44-0.77,3.22-1.15,5.33-1.15v7.78
		c-0.72-0.29-1.46-0.43-2.23-0.43c-0.77,0-1.6,0.13-2.48,0.4c-0.89,0.26-1.69,0.71-2.41,1.33c-0.77,0.62-1.39,1.44-1.87,2.45
		c-0.48,1.01-0.72,2.26-0.72,3.74v21.67H280.82z"/>
	<path class="st1" d="M211.62,291.78v-3.31c-0.48,0.53-0.94,1.02-1.37,1.48c-0.43,0.46-0.91,0.85-1.44,1.19
		c-0.53,0.34-1.13,0.6-1.8,0.79c-0.67,0.19-1.46,0.29-2.38,0.29c-3.07,0-5.21-1.15-6.41-3.46c-0.43-0.82-0.74-1.82-0.94-3.02
		c-0.19-1.2-0.29-2.81-0.29-4.82v-13.9c0-2.64,0.07-4.58,0.22-5.83c0.29-2.4,1.42-4.2,3.38-5.4c0.91-0.62,2.28-0.94,4.1-0.94
		c1.44,0,2.72,0.32,3.85,0.97c1.13,0.65,2.1,1.57,2.92,2.77h0.14v-18.07h7.34v51.26H211.62z M204.35,279.9
		c0,1.49,0.29,2.69,0.86,3.6c0.58,0.91,1.49,1.37,2.74,1.37c1.1,0,1.99-0.42,2.66-1.26c0.67-0.84,1.01-1.93,1.01-3.28v-14.18
		c0-1.15-0.35-2.1-1.04-2.84c-0.7-0.74-1.57-1.12-2.63-1.12c-1.39,0-2.34,0.43-2.84,1.3s-0.76,1.87-0.76,3.02V279.9z"/>
	<path class="st1" d="M246.25,276.3h-14.54v4.97c0,1.15,0.32,2.04,0.97,2.66s1.52,0.94,2.63,0.94c1.39,0,2.32-0.41,2.77-1.22
		c0.46-0.82,0.73-1.63,0.83-2.45h7.34c0,3.22-0.98,5.81-2.95,7.78c-0.96,1.01-2.11,1.8-3.46,2.38c-1.34,0.58-2.86,0.86-4.54,0.86
		c-2.3,0-4.26-0.48-5.87-1.44c-1.61-0.96-2.84-2.23-3.71-3.82c-0.53-0.96-0.89-2.06-1.08-3.31c-0.19-1.25-0.29-2.62-0.29-4.1v-12.02
		c0-1.49,0.1-2.86,0.29-4.1c0.19-1.25,0.55-2.35,1.08-3.31c0.86-1.58,2.1-2.86,3.71-3.82c1.61-0.96,3.56-1.44,5.87-1.44
		c1.68,0,3.2,0.29,4.57,0.86c1.37,0.58,2.53,1.37,3.49,2.38c1.92,2.16,2.88,4.87,2.88,8.14V276.3z M231.71,270.54h7.2v-4.18
		c0-1.39-0.32-2.44-0.97-3.13c-0.65-0.7-1.52-1.04-2.63-1.04c-1.1,0-1.98,0.35-2.63,1.04c-0.65,0.7-0.97,1.74-0.97,3.13V270.54z"/>
	<path class="st1" d="M287.44,255.28l-9.5,36.5h-6.48l-9.5-36.5h7.78l4.9,23.33h0.14l4.9-23.33H287.44z"/>
	<path class="st1" d="M289.31,267.52c0-1.49,0.1-2.86,0.29-4.1c0.19-1.25,0.55-2.35,1.08-3.31c0.86-1.58,2.1-2.86,3.71-3.82
		c1.61-0.96,3.56-1.44,5.87-1.44c2.3,0,4.26,0.48,5.87,1.44c1.61,0.96,2.84,2.23,3.71,3.82c0.53,0.96,0.89,2.06,1.08,3.31
		c0.19,1.25,0.29,2.62,0.29,4.1v12.02c0,1.49-0.1,2.86-0.29,4.1c-0.19,1.25-0.55,2.35-1.08,3.31c-0.86,1.58-2.1,2.86-3.71,3.82
		c-1.61,0.96-3.56,1.44-5.87,1.44c-2.3,0-4.26-0.48-5.87-1.44c-1.61-0.96-2.84-2.23-3.71-3.82c-0.53-0.96-0.89-2.06-1.08-3.31
		c-0.19-1.25-0.29-2.62-0.29-4.1V267.52z M296.65,280.69c0,1.39,0.32,2.44,0.97,3.13c0.65,0.7,1.52,1.04,2.63,1.04
		c1.1,0,1.98-0.35,2.63-1.04c0.65-0.7,0.97-1.74,0.97-3.13v-14.33c0-1.39-0.32-2.44-0.97-3.13c-0.65-0.7-1.52-1.04-2.63-1.04
		c-1.11,0-1.98,0.35-2.63,1.04c-0.65,0.7-0.97,1.74-0.97,3.13V280.69z"/>
	<path class="st1" d="M338.56,255.28v36.5h-7.34v-3.53h-0.14c-0.77,1.15-1.69,2.1-2.77,2.84c-1.08,0.74-2.46,1.12-4.14,1.12
		c-0.91,0-1.83-0.16-2.74-0.47c-0.91-0.31-1.73-0.83-2.45-1.55c-0.72-0.72-1.3-1.64-1.73-2.77c-0.43-1.13-0.65-2.51-0.65-4.14
		v-28.01h7.34v25.27c0,1.34,0.31,2.4,0.94,3.17c0.62,0.77,1.51,1.15,2.66,1.15c1.39,0,2.35-0.43,2.88-1.3s0.79-2.11,0.79-3.74
		v-24.55H338.56z"/>
	<path class="st1" d="M357.93,265.5c-0.05-1.25-0.44-2.18-1.19-2.81c-0.75-0.62-1.6-0.94-2.56-0.94c-1.15,0-2.04,0.37-2.66,1.12
		c-0.62,0.75-0.94,1.6-0.94,2.56c0,0.67,0.17,1.33,0.5,1.98c0.33,0.65,1.2,1.24,2.59,1.76l4.32,1.73c2.74,1.06,4.62,2.5,5.65,4.32
		c1.03,1.82,1.55,3.82,1.55,5.98c0,1.54-0.28,2.96-0.83,4.28c-0.55,1.32-1.31,2.48-2.27,3.49c-0.96,1.01-2.11,1.8-3.46,2.38
		c-1.34,0.58-2.81,0.86-4.39,0.86c-2.98,0-5.47-0.94-7.49-2.81c-1.01-0.91-1.82-2.05-2.45-3.42c-0.62-1.37-0.96-2.96-1.01-4.79h6.91
		c0.14,1.01,0.49,1.94,1.04,2.81c0.55,0.86,1.52,1.3,2.92,1.3c1.06,0,2-0.35,2.84-1.04c0.84-0.7,1.26-1.67,1.26-2.92
		c0-1.01-0.26-1.87-0.79-2.59c-0.53-0.72-1.49-1.34-2.88-1.87l-3.53-1.3c-2.3-0.86-4.12-2.15-5.44-3.85
		c-1.32-1.7-1.98-3.78-1.98-6.23c0-1.54,0.29-2.96,0.86-4.28c0.58-1.32,1.37-2.46,2.38-3.42c0.96-0.96,2.09-1.69,3.38-2.2
		c1.3-0.5,2.69-0.76,4.18-0.76c1.49,0,2.87,0.26,4.14,0.79c1.27,0.53,2.36,1.27,3.28,2.23c0.91,0.96,1.63,2.1,2.16,3.42
		c0.53,1.32,0.79,2.72,0.79,4.21H357.93z"/>
	<path class="st1" d="M369.95,291.78v-7.34h7.34v7.34H369.95z"/>
	<path class="st1" d="M383.34,253.19v-12.67h7.34v7.34L383.34,253.19z"/>
</g>
</svg>
